<?xml version="1.0" encoding="utf-8"?>
<!-- Generator: Adobe Illustrator 23.0.3, SVG Export Plug-In . SVG Version: 6.00 Build 0)  -->
<svg version="1.1" xmlns="http://www.w3.org/2000/svg" xmlns:xlink="http://www.w3.org/1999/xlink" x="0px" y="0px"
	 viewBox="0 0 388.55 242.82" style="enable-background:new 0 0 388.55 242.82;" xml:space="preserve">
<style type="text/css">
	.st0{display:none;}
	.st1{display:inline;fill:#00BBFF;}
	.st2{fill:#DDE1DF;}
	.st3{fill:#AFCDCA;}
	.st4{fill:#36B992;}
	.st5{fill:#BFC4C3;}
	.st6{fill:#1D1D1B;}
	.st7{fill:#00223C;}
	.st8{clip-path:url(#SVGID_2_);fill:#002F3F;}
	.st9{fill:#FFFFFF;}
	.st10{fill:#00101A;}
	.st11{opacity:0.1;}
	.st12{fill:none;stroke:#FFFFFF;stroke-miterlimit:10;}
</style>
<g id="BACKGROUND" class="st0">
	<rect x="-59.35" y="-184.22" class="st1" width="500" height="500"/>
</g>
<g id="OBJECTS">
	<path class="st2" d="M202.97,176.73l-24,3.27l-18.72-3.27c2.1,32.19-27.95,46.92-27.95,46.92h49.31h49.31
		C230.93,223.65,200.88,208.92,202.97,176.73z"/>
	<path class="st3" d="M178.97,180.01l-18.72-3.27c0.58,8.88-1.3,16.43-4.31,22.71l55.52,7.08c-5.25-7.4-9.31-17.27-8.5-29.79
		L178.97,180.01z"/>
	<path class="st4" d="M286.88,230.62c0,2.9-2.35,5.26-5.25,5.26H82.53c-2.9,0-5.25-2.35-5.25-5.26l0,0c0-2.9,2.35-5.25,5.25-5.25
		h199.1C284.53,225.36,286.88,227.71,286.88,230.62L286.88,230.62z"/>
	<path class="st5" d="M235.99,225.36c0,2.9-2.35,5.26-5.25,5.26h-96.79c-2.9,0-5.25-2.35-5.25-5.26l0,0c0-2.9,2.35-5.25,5.25-5.25
		h96.79C233.63,220.11,235.99,222.46,235.99,225.36L235.99,225.36z"/>
	<path class="st5" d="M297.92,196.02c-1.13,8.85-9.22,15.11-18.07,13.98l-193.62-24.7c-8.85-1.13-15.11-9.22-13.98-18.07
		L85.63,62.39c1.13-8.85,9.22-15.11,18.07-13.98l193.62,24.69c8.85,1.13,15.11,9.22,13.98,18.07L297.92,196.02z"/>
	<path class="st6" d="M297.31,73.11L103.69,48.41c-8.85-1.13-16.94,5.13-18.07,13.98L72.25,167.24c-0.03,0.23-0.03,0.45-0.05,0.68
		l225.6,28.77c0.04-0.22,0.09-0.44,0.12-0.67l13.37-104.85C312.42,82.32,306.16,74.23,297.31,73.11z"/>
	
		<rect x="142.22" y="19.36" transform="matrix(0.1265 -0.992 0.992 0.1265 44.2975 299.737)" class="st7" width="100.25" height="210.7"/>
	<g>
		<defs>
			
				<rect id="SVGID_1_" x="142.22" y="19.36" transform="matrix(0.1265 -0.992 0.992 0.1265 44.2975 299.737)" width="100.25" height="210.7"/>
		</defs>
		<clipPath id="SVGID_2_">
			<use xlink:href="#SVGID_1_"  style="overflow:visible;"/>
		</clipPath>
		<path class="st8" d="M343.49,186.14l-6.43-9.4l-8.57,7.49l-6.43-9.39l-8.57,7.49l-6.43-9.39l-8.57,7.49l-6.43-9.39l-8.57,7.49
			l-6.43-9.39l-8.57,7.49l-6.42-9.39l-8.57,7.49l-6.43-9.39l-8.57,7.49l-6.42-9.39l-8.57,7.49l-6.42-9.39l-8.57,7.49l-6.42-9.39
			l-8.57,7.49l-6.42-9.39l-8.57,7.49l-6.42-9.39l-8.57,7.49l-6.42-9.39l-8.57,7.49l-6.43-9.39l-8.57,7.49l-6.42-9.39l-8.57,7.49
			l-6.42-9.39l-8.57,7.49l-6.42-9.39l-8.57,7.49l-6.42-9.39l-8.57,7.49l-6.42-9.39l-8.57,7.49l-6.42-9.39l-8.57,7.49l-6.42-9.39
			l-8.56,7.49l-6.42-9.39l-8.57,7.49l-6.42-9.39l-8.57,7.49l-6.42-9.39l-8.57,7.49l-5.07-7.42l-3.51,2.4l7.77,11.37l8.56-7.49
			l6.42,9.39l8.57-7.49l6.42,9.39l8.57-7.49l6.42,9.39l8.57-7.49l6.42,9.39l8.57-7.49l6.42,9.39l8.57-7.49l6.42,9.39l8.57-7.49
			l6.42,9.39l8.57-7.49l6.42,9.39l8.57-7.49l6.42,9.39l8.57-7.49l6.42,9.39l8.57-7.49l6.42,9.39l8.57-7.49l6.42,9.39l8.57-7.49
			l6.42,9.39l8.57-7.49l6.42,9.39l8.57-7.49l6.42,9.39l8.57-7.49l6.42,9.39l8.57-7.49l6.42,9.39l8.57-7.49l6.43,9.39l8.57-7.49
			l6.43,9.39l8.57-7.49l6.43,9.39l8.57-7.49l6.43,9.39l8.57-7.49l6.43,9.39l8.57-7.49l6.43,9.39l8.57-7.49l6.43,9.39l10.38-9.06
			l-2.8-3.21L343.49,186.14z M345.22,172.5l-6.43-9.4l-8.57,7.49l-6.43-9.4l-8.57,7.49l-6.43-9.39l-8.57,7.49l-6.43-9.39l-8.57,7.49
			l-6.43-9.39l-8.57,7.49l-6.42-9.39l-8.57,7.49l-6.43-9.39l-8.57,7.49l-6.42-9.39l-8.57,7.49l-6.42-9.39l-8.57,7.49l-6.42-9.39
			l-8.57,7.49l-6.42-9.39l-8.57,7.49l-6.42-9.39l-8.57,7.49l-6.42-9.39l-8.57,7.49l-6.43-9.39l-8.57,7.49l-6.42-9.39l-8.57,7.49
			l-6.42-9.39l-8.57,7.49l-6.42-9.39l-8.57,7.49l-6.42-9.39l-8.57,7.49l-6.42-9.39l-8.57,7.49l-6.42-9.39l-8.57,7.49l-6.42-9.39
			l-8.57,7.49l-6.42-9.39l-8.57,7.49l-6.42-9.39l-8.56,7.49l-6.42-9.39l-8.57,7.49l-5.07-7.41l-3.51,2.4l7.77,11.37l8.57-7.49
			l6.42,9.39l8.57-7.49l6.42,9.39l8.57-7.49l6.42,9.39l8.57-7.49l6.42,9.39l8.57-7.49l6.42,9.39l8.57-7.49l6.42,9.39l8.57-7.49
			l6.42,9.39L98.1,139l6.42,9.39l8.57-7.49l6.42,9.39l8.57-7.49l6.42,9.39l8.57-7.49l6.42,9.39l8.57-7.49l6.42,9.39l8.57-7.49
			l6.42,9.39l8.57-7.49l6.42,9.39l8.57-7.49l6.42,9.39l8.57-7.49l6.42,9.39l8.57-7.49l6.42,9.39l8.57-7.49l6.43,9.39l8.57-7.49
			l6.43,9.39l8.57-7.49l6.43,9.39l8.57-7.49l6.43,9.39l8.57-7.49l6.43,9.39l8.57-7.49l6.43,9.4l8.57-7.49l6.43,9.39l10.38-9.06
			l-2.8-3.21L345.22,172.5z M346.96,158.86l-6.43-9.39l-8.57,7.49l-6.43-9.39l-8.57,7.49l-6.43-9.39l-8.57,7.49l-6.43-9.39
			l-8.57,7.49l-6.43-9.39l-8.57,7.49l-6.43-9.39l-8.57,7.49l-6.43-9.39l-8.57,7.49l-6.42-9.39l-8.57,7.49l-6.42-9.39l-8.57,7.49
			l-6.42-9.39l-8.57,7.49l-6.42-9.39l-8.57,7.49l-6.42-9.39l-8.57,7.49l-6.42-9.39l-8.57,7.49l-6.42-9.39l-8.57,7.49l-6.42-9.39
			l-8.57,7.49l-6.42-9.39l-8.57,7.49l-6.42-9.39l-8.57,7.49l-6.42-9.39l-8.57,7.49l-6.42-9.39l-8.57,7.49l-6.42-9.39l-8.57,7.49
			l-6.42-9.39l-8.57,7.49l-6.42-9.39l-8.57,7.49l-6.42-9.39l-8.57,7.49l-6.42-9.39l-8.57,7.49l-5.07-7.42l-3.51,2.4l7.77,11.37
			l8.57-7.49l6.42,9.39l8.57-7.49l6.42,9.39l8.57-7.49l6.42,9.39l8.56-7.49l6.42,9.39l8.57-7.49l6.42,9.39l8.57-7.49l6.42,9.39
			l8.57-7.49l6.42,9.39l8.57-7.49l6.42,9.39l8.57-7.49l6.43,9.39l8.57-7.49l6.42,9.39l8.57-7.49l6.43,9.39l8.57-7.49l6.42,9.39
			l8.57-7.49l6.42,9.39l8.57-7.49l6.42,9.39l8.57-7.49l6.42,9.39l8.57-7.49l6.42,9.39l8.57-7.49l6.42,9.39l8.57-7.49l6.43,9.39
			l8.57-7.49l6.42,9.39l8.57-7.49l6.43,9.39l8.57-7.49l6.43,9.39l8.57-7.49l6.43,9.39l8.57-7.49l6.43,9.39l8.57-7.49l6.43,9.39
			l10.38-9.06l-2.8-3.21L346.96,158.86z M340.03,213.41l-6.43-9.4l-8.57,7.49l-6.43-9.4l-8.57,7.49l-6.43-9.39l-8.57,7.49
			l-6.43-9.39l-8.57,7.49l-6.43-9.39l-8.57,7.49l-6.43-9.39l-8.57,7.49l-6.42-9.39l-8.57,7.49l-6.42-9.39l-8.57,7.49l-6.42-9.4
			l-8.57,7.49l-6.42-9.39l-8.57,7.49l-6.42-9.39l-8.57,7.49l-6.42-9.39l-8.57,7.49l-6.42-9.4l-8.57,7.49l-6.43-9.4l-8.57,7.49
			l-6.42-9.39l-8.57,7.49l-6.42-9.4l-8.57,7.49l-6.42-9.39l-8.57,7.49l-6.42-9.39l-8.57,7.49l-6.42-9.39l-8.57,7.49l-6.42-9.39
			l-8.57,7.49l-6.42-9.39l-8.57,7.49l-6.42-9.39l-8.57,7.49l-6.42-9.39l-8.57,7.49l-6.42-9.39l-8.56,7.49l-5.07-7.41l-3.51,2.4
			l7.77,11.37l8.57-7.49l6.42,9.39l8.57-7.49l6.42,9.39l8.57-7.49l6.42,9.39l8.56-7.49l6.42,9.39l8.57-7.49l6.42,9.39l8.57-7.49
			l6.42,9.39l8.57-7.49l6.42,9.39l8.57-7.49l6.42,9.39l8.57-7.49l6.42,9.39l8.57-7.49l6.42,9.39l8.57-7.49l6.43,9.39l8.57-7.49
			l6.42,9.39l8.57-7.49l6.42,9.39l8.57-7.49l6.42,9.39l8.57-7.49l6.42,9.39l8.57-7.49l6.42,9.39l8.57-7.49l6.42,9.39l8.57-7.49
			l6.43,9.39l8.57-7.49l6.43,9.39l8.57-7.49l6.43,9.39l8.57-7.49l6.43,9.39l8.57-7.49l6.42,9.39l8.57-7.49l6.43,9.39l8.57-7.49
			l6.43,9.39l10.38-9.06l-2.8-3.2L340.03,213.41z M5.3,30.22l6.42,9.39l8.56-7.49l6.42,9.39l8.57-7.49l6.42,9.39l8.57-7.49
			l6.42,9.39l8.57-7.49l6.42,9.39l8.57-7.49l6.42,9.39l8.57-7.49l6.42,9.39l8.57-7.49l6.42,9.39l8.57-7.49l6.42,9.39l8.57-7.49
			l6.42,9.39l8.57-7.49l6.43,9.39l8.57-7.49l6.42,9.39l8.57-7.49l6.42,9.39l8.57-7.49l6.42,9.39l8.57-7.49l6.42,9.39l8.57-7.49
			l6.42,9.39l8.57-7.49l6.42,9.39l8.57-7.49l6.43,9.39l8.57-7.49l6.43,9.39l8.57-7.49l6.43,9.39l8.57-7.49l6.43,9.39l8.57-7.49
			l6.43,9.39l8.57-7.49l6.43,9.39l8.57-7.49l6.43,9.39l10.38-9.06l-2.8-3.21l-6.77,5.92l-6.43-9.4l-8.57,7.49l-6.43-9.39l-8.57,7.49
			l-6.43-9.39l-8.57,7.49l-6.43-9.39l-8.57,7.49l-6.43-9.39l-8.57,7.49l-6.43-9.39l-8.57,7.49l-6.43-9.39l-8.57,7.49l-6.42-9.39
			l-8.57,7.49l-6.42-9.39l-8.57,7.49l-6.42-9.39L207.4,58l-6.42-9.39l-8.57,7.49l-6.42-9.39l-8.57,7.49L171,44.8l-8.57,7.49
			L156,42.9l-8.57,7.49l-6.42-9.39l-8.57,7.49l-6.42-9.39l-8.57,7.49l-6.42-9.39l-8.57,7.49l-6.42-9.39l-8.57,7.49l-6.42-9.39
			l-8.57,7.49l-6.42-9.39l-8.57,7.49l-6.42-9.39l-8.57,7.49l-6.42-9.39l-8.57,7.49l-6.42-9.39l-8.57,7.49l-6.42-9.39l-8.57,7.49
			l-5.07-7.41l-3.51,2.4l7.77,11.37L5.3,30.22z M341.76,199.77l-6.43-9.39l-8.57,7.49l-6.43-9.39l-8.57,7.49l-6.43-9.39l-8.57,7.49
			l-6.43-9.39l-8.57,7.49l-6.43-9.39l-8.57,7.49l-6.43-9.39l-8.57,7.49l-6.43-9.39l-8.57,7.49l-6.42-9.39l-8.57,7.49l-6.42-9.39
			l-8.57,7.49l-6.42-9.39l-8.57,7.49l-6.42-9.39l-8.57,7.49l-6.42-9.39l-8.57,7.49l-6.42-9.39l-8.57,7.49l-6.42-9.39l-8.57,7.49
			l-6.42-9.39l-8.57,7.49l-6.42-9.39l-8.57,7.49l-6.42-9.39l-8.57,7.49l-6.42-9.39l-8.57,7.49l-6.42-9.39l-8.57,7.49l-6.42-9.39
			l-8.57,7.49l-6.42-9.39l-8.57,7.49l-6.42-9.39l-8.57,7.49l-6.42-9.39l-8.57,7.49l-6.42-9.39l-8.57,7.49l-5.07-7.41l-3.51,2.4
			l7.77,11.37l8.57-7.49l6.42,9.39l8.56-7.49l6.42,9.39l8.57-7.49l6.42,9.39l8.56-7.49l6.42,9.39l8.57-7.49l6.42,9.39l8.57-7.49
			l6.42,9.39l8.57-7.49l6.42,9.39l8.57-7.49l6.42,9.39l8.57-7.49l6.42,9.39l8.57-7.49l6.42,9.39l8.57-7.49l6.43,9.39l8.57-7.49
			l6.42,9.39l8.57-7.49l6.42,9.39l8.57-7.49l6.42,9.39l8.57-7.49l6.42,9.39l8.57-7.49l6.42,9.39l8.57-7.49l6.42,9.39l8.57-7.49
			l6.43,9.39l8.57-7.49l6.43,9.39l8.57-7.49l6.43,9.39l8.57-7.49l6.43,9.39l8.57-7.49l6.43,9.39l8.57-7.49l6.43,9.39l8.57-7.49
			l6.43,9.39l10.38-9.06l-2.8-3.21L341.76,199.77z M355.61,90.68l-6.43-9.4l-8.57,7.49l-6.43-9.39l-8.57,7.49l-6.43-9.39l-8.57,7.49
			l-6.43-9.39l-8.57,7.49l-6.43-9.39l-8.57,7.49l-6.42-9.39l-8.57,7.49l-6.43-9.39l-8.57,7.49l-6.42-9.39l-8.57,7.49l-6.42-9.39
			l-8.57,7.49l-6.42-9.39l-8.57,7.49l-6.42-9.39l-8.57,7.49l-6.42-9.39l-8.57,7.49l-6.42-9.39l-8.57,7.49l-6.43-9.39l-8.57,7.49
			l-6.42-9.39l-8.57,7.49l-6.42-9.39l-8.57,7.49l-6.42-9.39l-8.57,7.49l-6.42-9.39l-8.57,7.49l-6.42-9.39l-8.57,7.49l-6.42-9.39
			l-8.57,7.49l-6.42-9.39l-8.57,7.49l-6.42-9.39l-8.57,7.49l-6.42-9.39l-8.57,7.49L4.38,37.5l-8.57,7.49l-5.07-7.41l-3.51,2.4
			L-5,51.35l8.57-7.49l6.42,9.39l8.57-7.49l6.42,9.39l8.57-7.49l6.42,9.39l8.56-7.49l6.42,9.39l8.57-7.49l6.42,9.39l8.57-7.49
			l6.42,9.39l8.57-7.49l6.42,9.39l8.57-7.49l6.42,9.39l8.57-7.49l6.42,9.39l8.57-7.49l6.42,9.39l8.57-7.49l6.42,9.39l8.57-7.49
			l6.42,9.39l8.57-7.49l6.42,9.39l8.57-7.49l6.42,9.39l8.57-7.49l6.42,9.39l8.57-7.49l6.42,9.39l8.57-7.49l6.42,9.39l8.57-7.49
			l6.43,9.39l8.57-7.49l6.43,9.39l8.57-7.49l6.43,9.39l8.57-7.49l6.43,9.39l8.57-7.49l6.43,9.39l8.57-7.49l6.43,9.39l8.57-7.49
			l6.43,9.39l10.38-9.06l-2.8-3.21L355.61,90.68z M353.88,104.31l-6.43-9.39l-8.57,7.49l-6.43-9.4l-8.57,7.49l-6.43-9.39l-8.57,7.49
			l-6.43-9.39l-8.57,7.49l-6.43-9.39l-8.57,7.49l-6.43-9.39l-8.57,7.49l-6.43-9.39l-8.57,7.49l-6.42-9.39l-8.57,7.49l-6.42-9.39
			l-8.57,7.49l-6.42-9.39l-8.57,7.49l-6.42-9.39l-8.57,7.49l-6.42-9.39l-8.57,7.49l-6.42-9.39l-8.57,7.49l-6.43-9.39l-8.57,7.49
			l-6.42-9.39l-8.57,7.49l-6.42-9.39l-8.57,7.49l-6.42-9.39L99,71.95l-6.42-9.39l-8.57,7.49l-6.42-9.39l-8.57,7.49l-6.42-9.39
			l-8.57,7.49l-6.42-9.39l-8.56,7.49l-6.42-9.39l-8.57,7.49l-6.42-9.39l-8.57,7.49l-6.42-9.39l-8.57,7.49l-5.07-7.41l-3.51,2.4
			l7.77,11.37l8.57-7.49l6.42,9.39l8.57-7.49l6.42,9.39l8.57-7.49l6.42,9.39l8.57-7.49l6.42,9.39l8.57-7.49l6.42,9.39l8.57-7.49
			l6.42,9.39l8.57-7.49l6.42,9.39l8.57-7.49l6.42,9.39l8.57-7.49l6.42,9.39l8.57-7.49l6.42,9.39l8.57-7.49l6.42,9.39l8.57-7.49
			l6.42,9.39l8.57-7.49l6.42,9.39l8.57-7.49l6.42,9.39l8.57-7.49l6.42,9.39l8.57-7.49l6.42,9.39l8.57-7.49l6.42,9.39l8.57-7.49
			l6.43,9.39l8.57-7.49l6.43,9.39l8.57-7.49l6.43,9.39l8.57-7.49l6.43,9.39l8.57-7.49l6.43,9.39l8.57-7.49l6.43,9.4l8.57-7.49
			l6.43,9.39l10.38-9.06l-2.8-3.21L353.88,104.31z M352.15,117.95l-6.43-9.4l-8.57,7.49l-6.43-9.39l-8.57,7.49l-6.43-9.39
			l-8.57,7.49l-6.43-9.39l-8.57,7.49l-6.43-9.39l-8.57,7.49l-6.43-9.39l-8.57,7.49l-6.43-9.39l-8.57,7.49l-6.42-9.39l-8.57,7.49
			l-6.42-9.39l-8.57,7.49l-6.42-9.39l-8.57,7.49l-6.42-9.39l-8.57,7.49l-6.42-9.39l-8.57,7.49l-6.42-9.39l-8.57,7.49l-6.42-9.39
			l-8.57,7.49l-6.42-9.39l-8.57,7.49L120.83,80l-8.57,7.49l-6.42-9.39l-8.57,7.49l-6.42-9.39l-8.57,7.49l-6.42-9.39l-8.57,7.49
			l-6.42-9.39l-8.57,7.49l-6.42-9.39l-8.57,7.49l-6.42-9.39l-8.57,7.49l-6.42-9.39l-8.57,7.49l-6.42-9.39l-8.57,7.49l-5.07-7.41
			l-3.51,2.4l7.77,11.37l8.56-7.49l6.42,9.39l8.57-7.49l6.42,9.39l8.57-7.49l6.42,9.39l8.56-7.49l6.42,9.39l8.57-7.49l6.42,9.39
			l8.57-7.49l6.42,9.39l8.57-7.49l6.42,9.39l8.57-7.49l6.42,9.39l8.57-7.49l6.42,9.39l8.57-7.49l6.42,9.39l8.57-7.49l6.43,9.39
			l8.57-7.49l6.42,9.39l8.57-7.49l6.42,9.39l8.57-7.49l6.42,9.39l8.57-7.49l6.42,9.39l8.57-7.49l6.42,9.39l8.57-7.49l6.42,9.39
			l8.57-7.49l6.43,9.39l8.57-7.49l6.43,9.39l8.57-7.49l6.43,9.39l8.57-7.49l6.43,9.39l8.57-7.49l6.42,9.39l8.57-7.49l6.43,9.39
			l8.57-7.49l6.43,9.39l10.38-9.06l-2.8-3.21L352.15,117.95z M350.42,131.59l-6.43-9.4l-8.57,7.49l-6.43-9.39l-8.57,7.49l-6.43-9.39
			l-8.57,7.49l-6.43-9.39l-8.57,7.49l-6.43-9.39l-8.57,7.49l-6.43-9.39l-8.57,7.49l-6.43-9.39l-8.57,7.49l-6.42-9.39l-8.57,7.49
			l-6.42-9.39l-8.57,7.49l-6.42-9.39l-8.57,7.49l-6.42-9.39l-8.57,7.49l-6.42-9.39l-8.57,7.49l-6.42-9.39l-8.57,7.49l-6.43-9.39
			l-8.57,7.49l-6.42-9.39l-8.57,7.49l-6.42-9.39l-8.57,7.49l-6.42-9.39l-8.57,7.49l-6.42-9.39l-8.57,7.49l-6.42-9.39l-8.57,7.49
			l-6.42-9.39l-8.57,7.49l-6.42-9.39l-8.57,7.49l-6.42-9.39l-8.57,7.49l-6.42-9.39L5.61,87.8l-6.42-9.39l-8.56,7.49l-5.07-7.41
			l-3.51,2.4l7.77,11.37l8.57-7.49l6.42,9.39l8.57-7.49l6.42,9.39l8.57-7.49l6.42,9.39l8.57-7.49l6.42,9.39l8.57-7.49l6.42,9.39
			l8.57-7.49l6.42,9.39l8.57-7.49l6.42,9.39l8.57-7.49l6.42,9.39l8.57-7.49l6.42,9.39l8.57-7.49l6.42,9.39l8.57-7.49l6.42,9.39
			l8.57-7.49l6.42,9.39l8.57-7.49l6.42,9.39l8.57-7.49l6.42,9.39l8.57-7.49l6.42,9.39l8.57-7.49l6.42,9.39l8.57-7.49l6.42,9.39
			l8.57-7.49l6.43,9.39l8.57-7.49l6.43,9.39l8.57-7.49l6.43,9.39l8.57-7.49l6.43,9.39l8.57-7.49l6.42,9.39l8.57-7.49l6.43,9.4
			l8.57-7.49l6.43,9.39l10.38-9.06l-2.8-3.21L350.42,131.59z M348.69,145.22l-6.43-9.4l-8.57,7.49l-6.43-9.39l-8.57,7.49l-6.42-9.39
			l-8.57,7.49l-6.43-9.39l-8.57,7.49l-6.43-9.39l-8.57,7.49l-6.43-9.39l-8.57,7.49l-6.43-9.39l-8.57,7.49l-6.42-9.39l-8.57,7.49
			l-6.42-9.39l-8.57,7.49l-6.42-9.39l-8.57,7.49l-6.42-9.39l-8.57,7.49l-6.42-9.39l-8.57,7.49l-6.42-9.39l-8.57,7.49l-6.43-9.39
			l-8.57,7.49l-6.42-9.39l-8.57,7.49l-6.42-9.39l-8.57,7.49l-6.42-9.39l-8.57,7.49l-6.42-9.39l-8.57,7.49l-6.42-9.39l-8.57,7.49
			l-6.42-9.39l-8.57,7.49l-6.42-9.39l-8.56,7.49l-6.42-9.39l-8.57,7.49l-6.42-9.39l-8.57,7.49l-6.42-9.39l-8.57,7.49l-5.07-7.41
			l-3.51,2.4l7.77,11.37l8.57-7.49l6.42,9.39l8.57-7.49l6.42,9.39l8.57-7.49l6.42,9.39l8.57-7.49l6.42,9.39l8.57-7.49l6.42,9.39
			l8.57-7.49l6.42,9.39l8.57-7.49l6.42,9.39l8.57-7.49l6.42,9.39l8.57-7.49l6.42,9.39l8.57-7.49l6.42,9.39l8.57-7.49l6.42,9.39
			l8.57-7.49l6.42,9.39l8.57-7.49l6.42,9.39l8.57-7.49l6.42,9.39l8.57-7.49l6.42,9.39l8.57-7.49l6.42,9.39l8.57-7.49l6.42,9.39
			l8.57-7.49l6.43,9.39l8.57-7.49l6.42,9.39l8.57-7.49l6.43,9.39l8.57-7.49l6.43,9.39l8.57-7.49l6.43,9.39l8.57-7.49l6.43,9.39
			l8.57-7.49l6.43,9.39l10.38-9.06l-2.8-3.21L348.69,145.22z"/>
	</g>
	<g>
		<g>
			<path class="st4" d="M124.51,125.52c-2,1.54-4.87,1.18-6.41-0.82l0,0c-1.54-2-1.18-4.87,0.82-6.41l36.77-28.45
				c2-1.54,4.87-1.18,6.41,0.82l0,0c1.54,2,1.18,4.87-0.82,6.41L124.51,125.52z"/>
			<path class="st4" d="M157.94,123.27c1.54,2,1.18,4.87-0.82,6.41l0,0c-2,1.54-4.87,1.18-6.41-0.82l-28.45-36.77
				c-1.54-2-1.18-4.87,0.82-6.41l0,0c2-1.55,4.87-1.18,6.41,0.82L157.94,123.27z"/>
		</g>
		<g>
			<path class="st4" d="M231.61,139.18c-2,1.54-4.87,1.18-6.41-0.82l0,0c-1.54-2-1.18-4.87,0.82-6.41l36.77-28.45
				c2-1.55,4.87-1.18,6.41,0.82l0,0c1.55,2,1.18,4.87-0.82,6.41L231.61,139.18z"/>
			<path class="st4" d="M265.04,136.93c1.54,2,1.18,4.87-0.82,6.41l0,0c-2,1.54-4.87,1.18-6.41-0.82l-28.45-36.77
				c-1.54-2-1.18-4.87,0.82-6.41l0,0c2-1.54,4.87-1.18,6.41,0.82L265.04,136.93z"/>
		</g>
	</g>
	<g>
		<path class="st4" d="M207.88,171.75c-2.82-0.36-4.81-2.93-4.45-5.75c1.13-8.87-5.16-17.01-14.04-18.14
			c-8.87-1.13-17.01,5.17-18.14,14.04c-0.36,2.82-2.93,4.81-5.75,4.45c-2.82-0.36-4.81-2.93-4.45-5.75
			c1.85-14.5,15.15-24.79,29.64-22.94c14.5,1.85,24.79,15.15,22.94,29.64C213.27,170.12,210.7,172.11,207.88,171.75z"/>
	</g>
	<path class="st9" d="M209.54,69.71c-0.14,1.11-1.16,1.9-2.27,1.76l-14.94-1.91c-1.11-0.14-1.9-1.16-1.76-2.27l0,0
		c0.14-1.11,1.16-1.9,2.27-1.76l14.94,1.91C208.9,67.58,209.68,68.6,209.54,69.71L209.54,69.71z"/>
	<path class="st10" d="M191.65,67.41c-0.08,0.61,0.35,1.16,0.96,1.24c0.61,0.08,1.16-0.35,1.24-0.96c0.08-0.61-0.35-1.16-0.96-1.24
		C192.28,66.37,191.73,66.8,191.65,67.41z"/>
	<g class="st11">
		<polygon class="st9" points="81.42,95.37 74.47,149.83 191.13,59.56 136.67,52.62 		"/>
		<path class="st9" d="M302.14,74.51c-1.49-0.7-3.11-1.19-4.83-1.41l-77.48-9.88L73.73,176.28c2.3,4.76,6.87,8.31,12.51,9.03
			l62.43,7.96L302.14,74.51z"/>
		<polygon class="st9" points="307.81,118.46 309.14,108.06 191.89,198.78 202.29,200.11 		"/>
	</g>
	<path class="st12" d="M233.71,5.39"/>
	<g>
		<g>
			<path class="st4" d="M378.72,41.77c-0.18-0.23-0.36-0.45-0.56-0.65c3.7-5.6,3.64-13.15-0.69-18.76
				c-4.41-5.71-11.9-7.64-18.33-5.26c-0.33-0.83-0.77-1.63-1.34-2.37c-3.24-4.18-9.25-4.95-13.43-1.71
				c-4.18,3.23-4.95,9.25-1.71,13.43c1.56,2.02,3.76,3.24,6.1,3.6c-0.56,4.13,0.47,8.48,3.22,12.04c2.48,3.2,5.93,5.21,9.61,5.94
				c0.08,1.92,0.73,3.83,1.99,5.46c3.24,4.18,9.25,4.95,13.43,1.71C381.19,51.96,381.96,45.95,378.72,41.77z"/>
			<path class="st4" d="M382.32,37.71c-1.53,1.19-1.82,3.39-0.63,4.93c1.19,1.53,3.39,1.82,4.93,0.63c1.53-1.19,1.81-3.39,0.63-4.93
				C386.06,36.81,383.85,36.53,382.32,37.71z"/>
			<path class="st4" d="M358.66,1.46c-3.05,2.36-3.61,6.75-1.25,9.81c2.36,3.05,6.75,3.61,9.81,1.25c3.05-2.36,3.61-6.75,1.25-9.81
				C366.11-0.34,361.72-0.9,358.66,1.46z"/>
			<path class="st4" d="M343.11,27.92c-2.08,1.61-2.46,4.6-0.85,6.68c1.61,2.08,4.6,2.46,6.68,0.85c2.08-1.61,2.46-4.6,0.85-6.68
				C348.19,26.69,345.19,26.31,343.11,27.92z"/>
			<path class="st4" d="M360.59,48.45c-2.27,1.76-2.69,5.03-0.93,7.3c1.76,2.27,5.03,2.69,7.3,0.93c2.27-1.76,2.69-5.03,0.93-7.3
				C366.14,47.11,362.87,46.69,360.59,48.45z"/>
			<path class="st4" d="M355.23,51.36c-1.12,0.87-1.32,2.47-0.46,3.59c0.87,1.12,2.47,1.32,3.59,0.46c1.12-0.86,1.32-2.47,0.46-3.59
				C357.95,50.7,356.35,50.5,355.23,51.36z"/>
			<path class="st4" d="M368.42,7.17c-1.53,1.18-1.81,3.38-0.63,4.9c1.18,1.53,3.38,1.81,4.9,0.63c1.53-1.18,1.81-3.38,0.63-4.9
				C372.14,6.27,369.94,5.99,368.42,7.17z"/>
			<path class="st4" d="M377.33,14.17c-0.92,0.71-1.08,2.02-0.38,2.93c0.71,0.91,2.02,1.08,2.94,0.37c0.91-0.71,1.08-2.02,0.37-2.93
				C379.56,13.63,378.24,13.46,377.33,14.17z"/>
			<path class="st4" d="M386.11,42.62c-0.66,0.51-0.78,1.46-0.27,2.12c0.51,0.66,1.46,0.78,2.13,0.27c0.66-0.51,0.78-1.46,0.27-2.13
				C387.73,42.23,386.77,42.11,386.11,42.62z"/>
			<polygon class="st4" points="349.8,28.77 318.31,65.12 326.78,61.21 313.16,76.45 365.29,48.8 356.46,37.38 			"/>
		</g>
		<g>
			<path class="st4" d="M298.21,66.82c-4.54-0.58-8.86-2.89-11.88-6.78c-2.37-3.06-3.4-6.86-2.91-10.7
				c0.49-3.84,2.45-7.26,5.51-9.62c5.14-3.97,12.55-3.03,16.52,2.11c1.57,2.03,2.26,4.55,1.93,7.09c-0.33,2.55-1.62,4.81-3.65,6.38
				c-3.43,2.65-8.38,2.02-11.04-1.41c-1.06-1.37-1.52-3.07-1.3-4.79c0.22-1.72,1.09-3.25,2.46-4.31c1.13-0.88,2.54-1.26,3.97-1.08
				c1.42,0.18,2.69,0.91,3.57,2.04c0.31,0.4,0.24,0.99-0.17,1.3c-0.41,0.31-0.99,0.24-1.3-0.17c-1.19-1.53-3.4-1.81-4.94-0.63
				c-2.02,1.56-2.39,4.47-0.83,6.49c2.03,2.62,5.82,3.11,8.44,1.08c1.64-1.27,2.68-3.1,2.95-5.15c0.26-2.05-0.29-4.09-1.56-5.73
				c-3.35-4.33-9.59-5.12-13.92-1.77c-2.67,2.07-4.38,5.05-4.8,8.39c-0.43,3.35,0.48,6.66,2.54,9.33
				c5.41,6.99,15.49,8.27,22.48,2.87c0.41-0.31,0.99-0.24,1.3,0.17c0.31,0.4,0.24,0.99-0.17,1.3
				C307.51,66.25,302.75,67.4,298.21,66.82z"/>
		</g>
		<g>
			<path class="st4" d="M340.71,82.68c-2.07-0.26-4.04-1.31-5.41-3.09c-1.08-1.39-1.55-3.12-1.33-4.87c0.22-1.75,1.11-3.3,2.51-4.38
				c2.34-1.81,5.71-1.38,7.52,0.96c0.71,0.92,1.02,2.07,0.88,3.23c-0.15,1.16-0.74,2.19-1.66,2.91c-1.57,1.21-3.82,0.92-5.03-0.64
				c-0.48-0.62-0.69-1.4-0.59-2.18c0.1-0.78,0.5-1.48,1.12-1.96c0.52-0.4,1.16-0.57,1.81-0.49c0.65,0.08,1.22,0.41,1.62,0.93
				c0.14,0.19,0.11,0.45-0.08,0.59c-0.18,0.14-0.45,0.11-0.59-0.08c-0.54-0.7-1.55-0.83-2.25-0.29c-0.92,0.71-1.09,2.04-0.38,2.96
				c0.93,1.19,2.65,1.41,3.84,0.49c0.75-0.58,1.22-1.41,1.34-2.35c0.12-0.94-0.13-1.86-0.71-2.61c-1.52-1.97-4.37-2.33-6.34-0.81
				c-1.22,0.94-1.99,2.3-2.19,3.82c-0.19,1.52,0.22,3.03,1.16,4.25c2.46,3.18,7.05,3.77,10.24,1.31c0.19-0.14,0.45-0.11,0.59,0.08
				c0.14,0.18,0.11,0.45-0.08,0.59C344.94,82.42,342.78,82.94,340.71,82.68z"/>
		</g>
		<g>
			<path class="st4" d="M330.69,109.92c-0.1,0.82-0.85,1.4-1.67,1.3l0,0c-0.82-0.1-1.4-0.85-1.3-1.67l3.06-23.95
				c0.1-0.82,0.85-1.4,1.67-1.29l0,0c0.82,0.1,1.4,0.85,1.29,1.67L330.69,109.92z"/>
			<path class="st4" d="M342.9,97.8c0.82,0.1,1.4,0.85,1.3,1.67l0,0c-0.1,0.82-0.85,1.4-1.67,1.3l-23.95-3.05
				c-0.82-0.1-1.4-0.85-1.29-1.67l0,0c0.1-0.82,0.86-1.4,1.67-1.3L342.9,97.8z"/>
		</g>
		<g>
			<path class="st4" d="M356.3,92.77c0.22,0.29,0.17,0.71-0.12,0.93l0,0c-0.29,0.22-0.71,0.17-0.93-0.12l-6.57-8.5
				c-0.23-0.29-0.17-0.71,0.12-0.93l0,0c0.29-0.23,0.71-0.17,0.93,0.12L356.3,92.77z"/>
			<path class="st4" d="M356.33,85.12c0.29-0.23,0.71-0.17,0.93,0.12l0,0c0.23,0.29,0.17,0.71-0.12,0.93l-8.5,6.57
				c-0.29,0.22-0.71,0.17-0.93-0.12l0,0c-0.22-0.29-0.17-0.71,0.12-0.93L356.33,85.12z"/>
		</g>
		<g>
			<path class="st4" d="M327.29,51.27c0.22,0.29,0.17,0.71-0.12,0.93l0,0c-0.29,0.23-0.71,0.17-0.93-0.12l-6.57-8.5
				c-0.23-0.29-0.17-0.71,0.12-0.93l0,0c0.29-0.22,0.71-0.17,0.93,0.12L327.29,51.27z"/>
			<path class="st4" d="M327.32,43.62c0.29-0.23,0.71-0.17,0.93,0.12l0,0c0.22,0.29,0.17,0.71-0.12,0.93l-8.49,6.57
				c-0.29,0.22-0.71,0.17-0.94-0.12l0,0c-0.22-0.29-0.17-0.71,0.12-0.93L327.32,43.62z"/>
		</g>
	</g>
	<g>
		<g>
			<path class="st4" d="M27.34,235.32c-0.13-0.17-0.25-0.34-0.37-0.52c-4.73,1.62-10.17,0.17-13.4-4.01
				c-3.29-4.25-3.28-10.01-0.37-14.2c-0.54-0.39-1.03-0.86-1.46-1.41c-2.41-3.12-1.84-7.59,1.28-10c3.11-2.41,7.59-1.84,10.01,1.28
				c1.16,1.5,1.63,3.32,1.45,5.07c3.09,0.37,6.03,1.92,8.08,4.57c1.85,2.39,2.65,5.25,2.49,8.04c1.37,0.42,2.62,1.24,3.56,2.46
				c2.41,3.12,1.84,7.59-1.28,10C34.23,239,29.75,238.43,27.34,235.32z"/>
			<path class="st4" d="M23.74,237.15c1.14-0.89,2.79-0.67,3.67,0.47c0.88,1.14,0.67,2.78-0.47,3.67c-1.14,0.88-2.79,0.67-3.67-0.47
				C22.39,239.68,22.6,238.03,23.74,237.15z"/>
			<path class="st4" d="M2.02,213.31c2.27-1.76,5.54-1.34,7.3,0.93c1.76,2.28,1.34,5.55-0.93,7.31c-2.27,1.76-5.55,1.34-7.31-0.93
				C-0.67,218.35-0.25,215.07,2.02,213.31z"/>
			<path class="st4" d="M24.01,207.05c1.55-1.2,3.78-0.92,4.98,0.63c1.2,1.55,0.92,3.78-0.63,4.98c-1.55,1.2-3.78,0.91-4.98-0.64
				C22.18,210.48,22.46,208.25,24.01,207.05z"/>
			<path class="st4" d="M35.55,223.49c1.69-1.31,4.13-1,5.44,0.69c1.31,1.7,1,4.13-0.69,5.44c-1.69,1.31-4.13,1-5.44-0.69
				C33.54,227.24,33.85,224.8,35.55,223.49z"/>
			<path class="st4" d="M38.65,220.17c0.83-0.64,2.03-0.49,2.67,0.34c0.64,0.84,0.49,2.03-0.34,2.67c-0.83,0.64-2.03,0.49-2.67-0.34
				C37.66,222.01,37.82,220.81,38.65,220.17z"/>
			<path class="st4" d="M4.32,221.41c1.14-0.88,2.77-0.67,3.65,0.47c0.88,1.14,0.67,2.77-0.47,3.65c-1.14,0.88-2.77,0.67-3.65-0.47
				C2.97,223.93,3.18,222.29,4.32,221.41z"/>
			<path class="st4" d="M7.69,229.15c0.68-0.53,1.66-0.4,2.19,0.28c0.53,0.68,0.4,1.66-0.28,2.19c-0.68,0.53-1.66,0.4-2.19-0.28
				C6.88,230.66,7.01,229.68,7.69,229.15z"/>
			<path class="st4" d="M26.57,240.8c0.49-0.38,1.2-0.29,1.58,0.2c0.38,0.49,0.29,1.2-0.2,1.58c-0.49,0.38-1.2,0.29-1.58-0.2
				C25.98,241.89,26.07,241.18,26.57,240.8z"/>
			<polygon class="st4" points="23.37,212.02 55.47,196.12 51.07,201.49 64.61,194.52 34.92,226.95 28.34,218.44 			"/>
		</g>
		<g>
			<path class="st4" d="M60.46,181.94c0.43-3.38-0.42-6.93-2.67-9.84c-1.77-2.28-4.31-3.74-7.17-4.1c-2.86-0.36-5.69,0.41-7.97,2.17
				c-3.83,2.96-4.53,8.48-1.57,12.31c1.17,1.51,2.86,2.48,4.75,2.72c1.9,0.24,3.77-0.27,5.28-1.44c2.56-1.98,3.03-5.67,1.05-8.23
				c-0.79-1.02-1.93-1.67-3.21-1.83c-1.28-0.16-2.55,0.18-3.57,0.97c-0.85,0.65-1.39,1.6-1.52,2.66c-0.14,1.06,0.15,2.11,0.8,2.95
				c0.23,0.3,0.67,0.36,0.97,0.12c0.3-0.23,0.36-0.67,0.12-0.97c-0.88-1.14-0.67-2.79,0.47-3.68c1.5-1.16,3.67-0.89,4.84,0.62
				c1.51,1.96,1.15,4.78-0.8,6.29c-1.22,0.95-2.73,1.36-4.26,1.16c-1.53-0.2-2.89-0.97-3.84-2.2c-2.49-3.22-1.9-7.87,1.32-10.37
				c1.99-1.54,4.46-2.21,6.95-1.89c2.49,0.32,4.72,1.59,6.25,3.58c4.03,5.21,3.07,12.72-2.14,16.75c-0.3,0.23-0.36,0.67-0.12,0.97
				c0.23,0.3,0.67,0.35,0.97,0.12C58.31,188.54,60.03,185.32,60.46,181.94z"/>
		</g>
		<g>
			<path class="st4" d="M63.95,215.55c0.2-1.54-0.19-3.16-1.22-4.48c-0.8-1.04-1.96-1.7-3.26-1.87c-1.3-0.17-2.59,0.19-3.63,0.99
				c-1.74,1.35-2.06,3.86-0.71,5.6c0.53,0.69,1.3,1.13,2.17,1.24c0.86,0.11,1.72-0.12,2.41-0.65c1.16-0.9,1.38-2.58,0.48-3.75
				c-0.36-0.46-0.88-0.76-1.46-0.84c-0.58-0.07-1.16,0.08-1.62,0.44c-0.38,0.3-0.63,0.73-0.69,1.21c-0.06,0.48,0.07,0.96,0.37,1.34
				c0.11,0.14,0.3,0.16,0.44,0.06c0.14-0.11,0.16-0.3,0.06-0.44c-0.4-0.52-0.31-1.27,0.21-1.68c0.69-0.53,1.67-0.4,2.2,0.28
				c0.69,0.89,0.52,2.18-0.37,2.87c-0.56,0.43-1.25,0.62-1.94,0.53c-0.7-0.09-1.32-0.44-1.75-1c-1.14-1.47-0.87-3.59,0.6-4.72
				c0.91-0.7,2.03-1,3.17-0.86c1.13,0.15,2.15,0.72,2.85,1.63c1.83,2.37,1.4,5.79-0.97,7.63c-0.14,0.11-0.16,0.3-0.06,0.44
				c0.11,0.14,0.3,0.16,0.44,0.06C62.97,218.56,63.75,217.09,63.95,215.55z"/>
		</g>
		<g>
			<path class="st4" d="M85.47,213.42c0.61,0.08,1.17-0.35,1.25-0.96l0,0c0.08-0.61-0.35-1.17-0.97-1.25l-17.84-2.28
				c-0.61-0.08-1.17,0.36-1.25,0.97l0,0c-0.08,0.61,0.35,1.17,0.96,1.25L85.47,213.42z"/>
			<path class="st4" d="M74.45,219.96c-0.08,0.61,0.35,1.17,0.97,1.25l0,0c0.61,0.08,1.17-0.35,1.25-0.96l2.28-17.84
				c0.08-0.61-0.35-1.17-0.97-1.25l0,0c-0.61-0.08-1.17,0.36-1.25,0.97L74.45,219.96z"/>
		</g>
		<g>
			<path class="st4" d="M68.31,228.69c0.17,0.22,0.48,0.26,0.7,0.09l0,0c0.22-0.17,0.26-0.48,0.09-0.7l-4.9-6.33
				c-0.17-0.22-0.48-0.26-0.7-0.09l0,0c-0.22,0.17-0.26,0.48-0.09,0.7L68.31,228.69z"/>
			<path class="st4" d="M62.79,227.27c-0.22,0.17-0.26,0.48-0.09,0.7l0,0c0.17,0.22,0.48,0.26,0.7,0.09l6.33-4.9
				c0.22-0.17,0.25-0.48,0.09-0.7l0,0c-0.17-0.22-0.48-0.26-0.7-0.09L62.79,227.27z"/>
		</g>
		<g>
			<path class="st4" d="M43.81,200c0.17,0.22,0.48,0.26,0.7,0.09l0,0c0.22-0.17,0.26-0.48,0.09-0.7l-4.9-6.33
				c-0.17-0.22-0.48-0.26-0.7-0.09l0,0c-0.22,0.17-0.26,0.48-0.09,0.69L43.81,200z"/>
			<path class="st4" d="M38.28,198.59c-0.22,0.17-0.26,0.48-0.09,0.69l0,0c0.17,0.22,0.48,0.26,0.7,0.09l6.33-4.9
				c0.22-0.17,0.26-0.48,0.09-0.69l0,0c-0.17-0.22-0.48-0.26-0.7-0.09L38.28,198.59z"/>
		</g>
	</g>
</g>
<g id="DESIGNED_BY_FREEPIK">
</g>
</svg>
